# xmcd
#
# Track frame offsets:
#	150
#	12240
#	25147
#	41820
#	52690
#	65597
#	77182
#	87322
#	105377
#	118015
#	130470
#	143190
#
# Disc length: 2061 seconds
# Revision: 0
# Processed by: cddbd v1.5.2PL0 Copyright (c) Steve Scherf et al.
# Submitted via: dBpowerAMP V12.0
#
DISCID=9d080b0c
DTITLE=Various Artist - The Road That Took You There
DYEAR=2004
DGENRE=Country
TTITLE0=Carolina Road - I Don't Want to Lose You
TTITLE1=Carolina Road - The Road That Took You There
TTITLE2=Carolina Road - Two Timing Lie
TTITLE3=Carolina Road - Two Chord Charlie
TTITLE4=Carolina Road - Cold Carolina Snow
TTITLE5=Carolina Road - Living on the Hallelujah Side
TTITLE6=Carolina Road - You Thought Wrong
TTITLE7=Carolina Road - Family Graveyard
TTITLE8=Carolina Road - Homesick for the Blue Ridge
TTITLE9=Carolina Road - Long Road Through Carolina
TTITLE10=Carolina Road with Dan Wells - Shenandoah Valley Waltz
TTITLE11=Carolina Road - Take Me Home to Mama
EXTD=
EXTT0=
EXTT1=
EXTT2=
EXTT3=
EXTT4=
EXTT5=
EXTT6=
EXTT7=
EXTT8=
EXTT9=
EXTT10=
EXTT11=
PLAYORDER=
